/* XPM */
static char * player_SW_xpm[] = {
"10 10 2 1",
" 	c #FFFFFF",
".	c #65B0E8",
"          ",
"          ",
"  ......  ",
"  ..  ..  ",
"  . .. .  ",
"... .. .  ",
". ..  ..  ",
"  ......  ",
" .  .     ",
".  ..     "};
