/* XPM */
static char * wall_xpm[] = {
"20 20 2 1",
" 	c #363C6E",
".	c #000000",
"                    ",
"                    ",
"                    ",
"      ........      ",
"       ......       ",
"        ....        ",
"   .     ..     .   ",
"   ..          ..   ",
"   ...        ...   ",
"   ....      ....   ",
"   ....      ....   ",
"   ...        ...   ",
"   ..          ..   ",
"   .     ..     .   ",
"        ....        ",
"       ......       ",
"      ........      ",
"                    ",
"                    ",
"                    "};
