<?xml version="1.0" encoding="utf-8"?>
<!-- Generator: Adobe Illustrator 21.1.0, SVG Export Plug-In . SVG Version: 6.00 Build 0)  -->
<svg version="1.1" id="Layer_1" xmlns="http://www.w3.org/2000/svg" xmlns:xlink="http://www.w3.org/1999/xlink" x="0px" y="0px"
	 width="118px" height="48px" viewBox="0 0 118 48" style="enable-background:new 0 0 118 48;" xml:space="preserve">
<g>
	<polygon points="37.4,0.9 25.1,0.9 0.5,25.5 0.5,35.4 25.1,35.4 25.1,47.7 37.4,47.7 37.4,25.5 12.8,25.5 	"/>
	<polygon points="42.7,13.2 55,0.9 42.7,0.9 	"/>
	<polygon points="67.3,13.2 67.3,0.9 55,0.9 55,13.2 42.7,25.5 42.7,37.7 55,37.7 55,25.5 	"/>
	<polygon points="67.3,25.5 55,37.7 67.3,37.7 	"/>
	<rect x="79.7" y="25.5" width="1" height="12.2"/>
	<polygon points="86.5,28 87.9,28 87.1,33.5 89.4,33.5 89.3,34.7 85.6,34.7 	"/>
	<polygon points="91,28 92.4,28 91.5,34.7 90.2,34.7 	"/>
	<path d="M94.7,33.7c0.6,0,0.9-0.3,0.9-0.9c0-0.4-0.2-0.7-0.6-0.9c-0.5-0.3-1-0.5-1.3-0.9c-0.3-0.3-0.4-0.7-0.4-1.2
		c0-1.1,0.9-2,2.2-2c0.8,0,1.3,0.3,1.8,0.8l-0.7,0.9c-0.2-0.4-0.6-0.7-1-0.7c-0.5,0-0.9,0.3-0.9,0.8c0,0.5,0.4,0.7,1.1,1.1
		c0.9,0.5,1.3,1,1.3,2c0,1.2-0.9,2.1-2.3,2.1c-0.8,0-1.5-0.3-2-1l0.8-0.9C93.7,33.4,94.1,33.7,94.7,33.7"/>
	<path d="M98.6,28h1.4c0.8,0,1.5,0,1.9,0.4c0.4,0.3,0.6,0.7,0.6,1.2c0,0.9-0.5,1.5-1.4,1.6c0.9,0.1,1.4,0.7,1.4,1.5
		c0,0.7-0.3,1.3-0.8,1.6c-0.5,0.4-1.3,0.4-2.3,0.4h-1.5L98.6,28z M99.6,33.6c1,0,1.5-0.2,1.5-0.9c0-0.7-0.5-0.8-1.3-0.8h-0.3
		l-0.2,1.8H99.6z M99.7,30.7h0.1c0.9,0,1.4-0.2,1.4-0.9c0-0.6-0.4-0.7-1.2-0.7h-0.1L99.7,30.7z"/>
	<path d="M103.3,31.6c0-0.9,0.4-1.9,1-2.6c0.7-0.8,1.7-1.2,2.8-1.2c2,0,3.3,1.3,3.3,3.1c0,1-0.3,1.9-0.9,2.5
		c-0.7,0.8-1.7,1.3-2.9,1.3C104.6,34.8,103.3,33.6,103.3,31.6 M104.7,31.6c0,1.3,0.8,2,1.9,2c1.3,0,2.3-1.1,2.3-2.6
		c0-1.2-0.8-2-1.9-2C105.7,29.1,104.7,30.1,104.7,31.6"/>
	<path d="M113.7,28h1.5l1.6,6.6h-1.5l-0.3-1.4h-2.5l-0.7,1.4h-1.6L113.7,28z M114.5,30.6c-0.1-0.3-0.1-0.8-0.1-1.4
		c-0.1,0.5-0.3,0.9-0.5,1.3l-0.8,1.7h1.7L114.5,30.6z"/>
</g>
</svg>
