/* XPM */
static char * floor_xpm[] = {
"10 10 21 1",
" 	c #FFFFFF",
".	c #FBFFFF",
"+	c #ECFDEF",
"@	c #EAFCED",
"#	c #F1FFF4",
"$	c #F1FFF2",
"%	c #E2F9E8",
"&	c #E0F8E7",
"*	c #E0F7E6",
"=	c #E1F8E7",
"-	c #EBFCEE",
";	c #F9FFFF",
">	c #E1F9E8",
",	c #DFF7E6",
"'	c #EDFEF0",
")	c #E9FCED",
"!	c #DFF7E5",
"~	c #DFF6E5",
"{	c #F7FFFD",
"]	c #E4FAE9",
"^	c #F1FFF3",
"  .+@@#   ",
" $%&**=-  ",
";>**,**=' ",
")**!~~!*%{",
"]*!~~~!*=^",
"]*!~~~!*=^",
")**!~~!*%{",
";>**,**=' ",
" $%&**=-  ",
"  .+@@#   "};
