/* XPM */
static char * player_NE_xpm[] = {
"10 10 2 1",
" 	c #FFFFFF",
".	c #65B0E8",
"     ..  .",
"     .  . ",
"  ......  ",
"  ..  .. .",
"  . .. ...",
"  . .. .  ",
"  ..  ..  ",
"  ......  ",
"          ",
"          "};
