/* XPM */
static char * player_W_xpm[] = {
"10 10 2 1",
" 	c #65B0E8",
".	c #FFFFFF",
" .........",
". ........",
"..      ..",
" .  ..  ..",
".  .  . ..",
".  .  . ..",
" .  ..  ..",
"..      ..",
". ........",
" ........."};
