/* XPM */
static char * wall_xpm[] = {
"10 10 12 1",
" 	c #FFFFFF",
".	c #F9F9F9",
"+	c #DCDCDC",
"@	c #CACACA",
"#	c #EDEDED",
"$	c #B2B2B2",
"%	c #717171",
"&	c #515151",
"*	c #474747",
"=	c #111111",
"-	c #030303",
";	c #000000",
"  .+@@+.  ",
" #$%&&%$# ",
".$*=--=*$.",
"+%=;;;;=%+",
"@&-;;;;-&@",
"@&-;;;;-&@",
"+%=;;;;=%+",
".$*=--=*$.",
" #$%&&%$# ",
"  .+@@+.  "};
