/* XPM */
static char * 1_xpm[] = {
"128 128 62 1",
" 	c #BDBDBD",
".	c #A8A8A8",
"+	c #F2F2F2",
"@	c #F8F8F8",
"#	c #F1F1F1",
"$	c #E7E7E7",
"%	c #C9C9C9",
"&	c #606060",
"*	c #ADADAD",
"=	c #7D7D7D",
"-	c #828282",
";	c #555555",
">	c #545454",
",	c #505050",
"'	c #D3D3D3",
")	c #5C5C5C",
"!	c #AFAFAF",
"~	c #BEBEBE",
"{	c #E2E2E2",
"]	c #D8D8D8",
"^	c #BABABA",
"/	c #E6E6E6",
"(	c #BCBCBC",
"_	c #3F3F3F",
":	c #DFDFDF",
"<	c #E8E8E8",
"[	c #E0E0E0",
"}	c #4B4B4B",
"|	c #6D6D6D",
"1	c #5D5D5D",
"2	c #464646",
"3	c #484848",
"4	c #F0F0F0",
"5	c #F4F4F4",
"6	c #767676",
"7	c #515151",
"8	c #8A8A8A",
"9	c #C3C3C3",
"0	c #7E7E7E",
"a	c #3E3E3E",
"b	c #666666",
"c	c #8D8D8D",
"d	c #9A9A9A",
"e	c #7A7A7A",
"f	c #EAEAEA",
"g	c #AEAEAE",
"h	c #C4C4C4",
"i	c #A0A0A0",
"j	c #A9A9A9",
"k	c #D2D2D2",
"l	c #F6F6F6",
"m	c #F9F9F9",
"n	c #F5F5F5",
"o	c #4E4E4E",
"p	c #EDEDED",
"q	c #4C4C4C",
"r	c #C2C2C2",
"s	c #ECECEC",
"t	c #B3B3B3",
"u	c #838383",
"v	c #7F7F7F",
"w	c #868686",
"           .++++++++++++++++++@###################$%&&&&&&&&&&             .++++++++++++++++++@###################$%&&&&&&&&&&  ",
"           *=================-;;#####################$%&&&&&&>,,           *=================-;;#####################$%&&&&&&>,,",
",,                           &&&'#######################$%&&&,,,,,                           &&&'#######################$%&&&,,,",
",,,,                        )&&!###########################$~,,,,,,,                        )&&!###########################$~,,,",
",,,,,,                     ,&&&%############################{{]^,,,,,,                     ,&&&%############################{{]^",
"{]^,,,,,                  ,)&&&'###########################/{{{{{]^,,,,,                  ,)&&&'###########################/{{{{",
"{{{{]^,,,,               ,,&&&!############################{{{{{{{{{]^,,,,               ,,&&&!############################{{{{{",
"{{{{{{{]^,,,            ,,)&&&%###########################/{{{{{{{{{{{{]^,,,            ,,)&&&%###########################/{{{{{",
"{{{{{{{{{{]^,,         ,,,&&&&'###########################{{{{{{{{{{{{{{{{]^,,         ,,,&&&&'###########################{{{{{{",
"{{{{{{{{{{{{{](_      ,,,,&&&!############################{{{{{{{{{{{{{{{{{{{](_      ,,,,&&&!############################{{{{{{",
"{{{{{{{{{{{{::<+[.   ,,,,,,&&%#############################{{{{{{{{{{{{{{{{{::<+[.   ,,,,,,&&%#############################{{{{{",
"{{{{{{{{{{::<++++++[^,,,,,,&&'#############################{{{{{{{{{{{{{{{::<++++++[^,,,,,,&&'#############################{{{{{",
"{{{{{{{{::<++++++++{{{]^,,,,!###############################{{{{{{{{{{{{::<++++++++{{{]^,,,,!###############################{{{{",
"{{{{{{::<+++++++++{{{{{{{]^,%###############################{{{{{{{{{{::<+++++++++{{{{{{{]^,%###############################{{{{",
"{{{{::<++++++++++{{{{{{{{{{{};###############################{{{{{{{::<++++++++++{{{{{{{{{{{};###############################{{{",
"{{::<+++++++++++{{{{{{{{{{{|,&&1;############################{{{{{::<+++++++++++{{{{{{{{{{{|,&&1;############################{{{",
"::<++++++++++++{{{{{{{{{{{{2,,&&&&1;##########################{{::<++++++++++++{{{{{{{{{{{{2,,&&&&1;##########################{{",
"<+++++++++++++{{{{{{{{{{{{{3,,&&&&&&&1;#######################::<+++++++++++++{{{{{{{{{{{{{3,,&&&&&&&1;#######################::",
"+++++++++++++{{{{{{{{{{{{{|,,,,&&&&&&&&&1;##################445++++++++++++++{{{{{{{{{{{{{|,,,,&&&&&&&&&1;##################445+",
"++++++++++++{{{{{{{{{{{{{{2,,,,&&&&&&&&&&&&1;#############445@@+++++++++++++{{{{{{{{{{{{{{2,,,,&&&&&&&&&&&&1;#############445@@+",
"+++++++++++{{{{{{{{{{{{{{{3,,,,,&&&&&&&&&&&&&&1;########445@@@@@+++++++++++{{{{{{{{{{{{{{{3,,,,,&&&&&&&&&&&&&&1;########445@@@@@",
"++++++++++{{{{{{{{{{{{{{{|,,,,,,&&&&&&&&&&&&&&&&&1;###445@@@@@@@++++++++++{{{{{{{{{{{{{{{|,,,,,,&&&&&&&&&&&&&&&&&1;###445@@@@@@@",
"@++++++++{{{{{{{{{{{{{{{{2,,,,,,,&&&&&&&&&&&&&&&&&&&,65@@@@@@@@@@++++++++{{{{{{{{{{{{{{{{2,,,,,,,&&&&&&&&&&&&&&&&&&&,65@@@@@@@@@",
"@+++++++{{{{{{{{{{{{{{{{{3,,,,,,,&&&&&&&&&&&&&&&&&778~@@@@@@@@@@@+++++++{{{{{{{{{{{{{{{{{3,,,,,,,&&&&&&&&&&&&&&&&&778~@@@@@@@@@@",
"@@+++++{{{{{{{{{{{{{{{{{|,,,,,,,,,&&&&&&&&&&&&&&77899~@@@@@@@@@@@@+++++{{{{{{{{{{{{{{{{{|,,,,,,,,,&&&&&&&&&&&&&&77899~@@@@@@@@@@",
"@@++++{{{{{{{{{{{{{{{{{{2,,,,,,,,,&&&&&&&&&&&&7789999~@@@@@@@@@@@@++++{{{{{{{{{{{{{{{{{{2,,,,,,,,,&&&&&&&&&&&&7789999~@@@@@@@@@@",
"@@@++{{{{{{{{{{{{{{{{{{{3,,,,,,,,,,&&&&&&&&&778999999~@@@@@@@@@@@@@++{{{{{{{{{{{{{{{{{{{3,,,,,,,,,,&&&&&&&&&778999999~@@@@@@@@@@",
"@@@+{{{{{{{{{{{{{{{{{{{|,,,,,,,,,,,&&&&&&&77899999999~@@@@@@@@@@@@@+{{{{{{{{{{{{{{{{{{{|,,,,,,,,,,,&&&&&&&77899999999~@@@@@@@@@@",
"@@@#{{{{{{{{{{{{{{{{{{{2,,,,,,,,,,,,&&&&7789999999999~@@@@@@@@@@@@@#{{{{{{{{{{{{{{{{{{{2,,,,,,,,,,,,&&&&7789999999999~@@@@@@@@@@",
"@@##{{{{{{{{{{{{{{{{{{{3,,,,,,,,,,,,&&778999999999999~@@@@@@@@@@@@##{{{{{{{{{{{{{{{{{{{3,,,,,,,,,,,,&&778999999999999~@@@@@@@@@@",
"@####{{{{{{{{{{{{{{{{{|,,,,,,,,,,,,,_7899999999999999~@@@@@@@@@@@####{{{{{{{{{{{{{{{{{|,,,,,,,,,,,,,_7899999999999999~@@@@@@@@@@",
"#####{{{{{{{{{{{{{{{{{2,,,,,,,,,,,__09999999999999999~@@@@@@@@@@#####{{{{{{{{{{{{{{{{{2,,,,,,,,,,,__09999999999999999~@@@@@@@@@@",
"######{{{{{{{{{{{{{{{{3,,,,,,,,,__0   999999999999999~@@@@@@@@@#######{{{{{{{{{{{{{{{{3,,,,,,,,,__0   999999999999999~@@@@@@@@@#",
"######{{{{{{{{{{{{{{{|,,,,,,,,__0     999999999999999~@@@@@@@@########{{{{{{{{{{{{{{{|,,,,,,,,__0     999999999999999~@@@@@@@@##",
"#######{{{{{{{{{{{{{{2,,,,,,__0        99999999999999~@@@@@@@##########{{{{{{{{{{{{{{2,,,,,,__0        99999999999999~@@@@@@@###",
"#######{{{{{{{{{{{{{{3,,,,__0          99999999999999~@@@@@@###########{{{{{{{{{{{{{{3,,,,__0          99999999999999~@@@@@@####",
"########{{{{{{{{{{{{|,,,__0             9999999999999~@@@@@#############{{{{{{{{{{{{|,,,__0             9999999999999~@@@@@#####",
"########{{{{{{{{{{{{2,__0               9999999999999~@@@@##############{{{{{{{{{{{{2,__0               9999999999999~@@@@######",
"#########{{{{{{{{{{{a_0                  999999999999~@@@################{{{{{{{{{{{a_0                  999999999999~@@@#######",
"#########{{{{{{{{{:b0                    999999999999~@@#################{{{{{{{{{:b0                    999999999999~@@########",
"##########{{{{{{::<=                      99999999999~@###################{{{{{{::<=                      99999999999~@#########",
"##########{{{{{{<++c                      99999999999~####################{{{{{{<++c                      99999999999~##########",
"###########{{{{{{{d                        9999999999e#####################{{{{{{{d                        9999999999e##########",
"###########{{{{{{{2,                       999999999&e#####################{{{{{{{2,                       999999999&e##########",
"############{{{{{{3,,,                      9999999&&&1;####################{{{{{{3,,,                      9999999&&&1;########",
"############{{{{{|,,,,,,                    999999&&&&&&&1;#################{{{{{|,,,,,,                    999999&&&&&&&1;#####",
"#############{{{{2,,,,,,,,                   9999&&&&&&&&&&&1;###############{{{{2,,,,,,,,                   9999&&&&&&&&&&&1;##",
";############{{{{3,,,,,,,,,,                 999&&&&&&&&&&&&&&&1;############{{{{3,,,,,,,,,,                 999&&&&&&&&&&&&&&&1",
"&&1;##########{{|,,,,,,,,,,,,,                9&&&&&&&&&&&&&&&&&&&1;##########{{|,,,,,,,,,,,,,                9&&&&&&&&&&&&&&&&&",
"&&&&&1;#######{{2,,,,,,,,,,,,,,,              &&&&&&&&&&&&&&&&&&&&&&&1;#######{{2,,,,,,,,,,,,,,,              &&&&&&&&&&&&&&&&&&",
"&&&&&&&&1;#####{3,,,,,,,,,,,,,,,,,           ,,&&&&&&&&&&&&&&&&&&&&&&&&&1;#####{3,,,,,,,,,,,,,,,,,           ,,&&&&&&&&&&&&&&&&&",
"&&&&&&&&&&&1;##|,,,,,,,,,,,,,,,,,,,,        ,,,&&&&&&&&&&&&&&&&&&&&&&&&&&&&1;##|,,,,,,,,,,,,,,,,,,,,        ,,,&&&&&&&&&&&&&&&&&",
"&&&&&&&&&&&&&&1#,,,,,,,,,,,,,,,,,,,,,,     ,,,,,&&&&&&&&&&&&&&&&&&&&&&&&&&&&&&1#,,,,,,,,,,,,,,,,,,,,,,     ,,,,,&&&&&&&&&&&&&&&&",
"&&&&&&&&&&&&&&&'{]^,,,,,,,,,,,,,,,,,,,,,  ,,,,,,&&&&&&&&&&&&&&&&&&&&&&&&&&&&&&&'{]^,,,,,,,,,,,,,,,,,,,,,  ,,,,,,&&&&&&&&&&&&&&&&",
"&&&&&&&&&&&&&&!##{{{]^,,,,,,,,,,,,,,,,,,, ,,,,,,,&&&&&&&&&&&&&&&&&&&&&&&&&&&&&!##{{{]^,,,,,,,,,,,,,,,,,,, ,,,,,,,&&&&&&&&&&&&&&&",
"&&&&&&&&&&&&&&%##{{{{{{]^,,,,,,,,,,,,,,,    ,,,,,&&&&&&&&&&&&&&&&&&&&&&&&&&&&&%##{{{{{{]^,,,,,,,,,,,,,,,    ,,,,,&&&&&&&&&&&&&&&",
"&&&&&&&&&&&&&&'###{{{{{{{{]^,,,,,,,,,,,       ,,,,&&&&&&&&&&&&&&&&&&&&&&&&&&&&'###{{{{{{{{]^,,,,,,,,,,,       ,,,,&&&&&&&&&&&&&&",
"&&&&&&&&&&&&&!####{{{{{{{{{{{]^,,,,,,,          ,,&&&&&&&&&&&&&&&&&&&&&&&&&&&!####{{{{{{{{{{{]^,,,,,,,          ,,&&&&&&&&&&&&&&",
"&&&&&&&&&&&&&%#####{{{{{{{{{{{{{]^,,,             ,&&&&&&&&&&&&&&&&&&&&&&&&&&%#####{{{{{{{{{{{{{]^,,,             ,&&&&&&&&&&&&&",
"&&&&&&&&&&&&&'#####{{{{{{{{{{{{{{{{].              9&&&&&&&&&&&&&&&&&&&&&&&&&'#####{{{{{{{{{{{{{{{{].              9&&&&&&&&&&&&",
"&&&&&&&&&&&&!#######{{{{{{{{{{{{{{{+++[.            99&&&&&&&&&&&&&&&&&&&&&&!#######{{{{{{{{{{{{{{{+++[.            99&&&&&&&&&&",
"&&&&&&&&&&&&%#######{{{{{{{{{{{{{{+++++++[.         9999&&&&&&&&&&&&&&&&&&&&%#######{{{{{{{{{{{{{{+++++++[.         9999&&&&&&&&",
"&&&&&&&&&&&&'########{{{{{{{{{{{{+++++++++++[.       99999&&&&&&&&&&&&&&&&&&'########{{{{{{{{{{{{+++++++++++[.       99999&&&&&&",
"&&&&&&&&&&&!#########{{{{{{{{{{{+++++++++++++++[.    9999999&&&&&&&&&&&&&&&!#########{{{{{{{{{{{+++++++++++++++[.    9999999&&&&",
"&&&&&&&&&&&%##########{{{{{{{{{{f+++++++++++++++++[.  99999999&&&&&&&&&&&&&%##########{{{{{{{{{{f+++++++++++++++++[.  99999999&&",
"&&&&&&&&&&&1;;;;;;;;;;2222222222{f+++++++++++++++++++[g999999999&&&&&&&&&&&1;;;;;;;;;;2222222222{f+++++++++++++++++++[g999999999",
"99&&&&&&&&&&&&&&&&&&&&&,,,,,,,,,h{f++++++++++++++++++++@/g99999999&&&&&&&&&&&&&&&&&&&&&,,,,,,,,,h{f++++++++++++++++++++@/g999999",
"9999&&&&&&&&&&&&&&&&&&&,,,,,,,,i{{{f+++++++++++++++++++@@@@/g9999999&&&&&&&&&&&&&&&&&&&,,,,,,,,i{{{f+++++++++++++++++++@@@@/g999",
"999999&&&&&&&&&&&&&&&&&&,,,,,,,^{{{{f+++++++++++++++++++@@@@@@/g999999&&&&&&&&&&&&&&&&&&,,,,,,,^{{{{f+++++++++++++++++++@@@@@@/g",
"@/g99999&&&&&&&&&&&&&&&&,,,,,,,h{{{{{f++++++++++++++++++@@@@@@@@@/g99999&&&&&&&&&&&&&&&&,,,,,,,h{{{{{f++++++++++++++++++@@@@@@@@",
"@@@@/g9999&&&&&&&&&&&&&&&,,,,,i{{{{{{{f++++++++++++++++++@@@@@@@@@@@/g9999&&&&&&&&&&&&&&&,,,,,i{{{{{{{f++++++++++++++++++@@@@@@@",
"@@@@@@@/g999&&&&&&&&&&&&&,,,,,^{{{{{{{{f+++++++++++++++++@@@@@@@@@@@@@@/g999&&&&&&&&&&&&&,,,,,^{{{{{{{{f+++++++++++++++++@@@@@@@",
"@@@@@@@@@@/g99&&&&&&&&&&&&,,,,h{{{{{{{{{f+++++++++++++++++@@@@@@@@@@@@@@@@/g99&&&&&&&&&&&&,,,,h{{{{{{{{{f+++++++++++++++++@@@@@@",
"@@@@@@@@@@@@@/jk&&&&&&&&&>,,,i{{{{{{{{{{{f+++++++++++++++l@@@@@@@@@@@@@@@@@@@/jk&&&&&&&&&>,,,i{{{{{{{{{{{f+++++++++++++++l@@@@@@",
"@@@@@@@@@@@@mmn#$%&&&&&&&,,,,^{{{{{{{{{{{{f++++++++++++++@@@@@@@@@@@@@@@@@@@mmn#$%&&&&&&&,,,,^{{{{{{{{{{{{f++++++++++++++@@@@@@@",
"@@@@@@@@@@mmn######$%&&&>,,,,h{{{{{{{{{{{{{f++++++++++++l@@@@@@@@@@@@@@@@@mmn######$%&&&>,,,,h{{{{{{{{{{{{{f++++++++++++l@@@@@@@",
"@@@@@@@@mmn###########$%,,,,i{{{{{{{{{{{{{{{f+++++++++++@@@@@@@@@@@@@@@@mmn###########$%,,,,i{{{{{{{{{{{{{{{f+++++++++++@@@@@@@@",
"@@@@@@mmn##############/{]^,^{{{{{{{{{{{{{{{{f+++++++++l@@@@@@@@@@@@@@mmn##############/{]^,^{{{{{{{{{{{{{{{{f+++++++++l@@@@@@@@",
"@@@@mmn################{{{{{}2{{{{{{{{{{{{{{{{f++++++++@@@@@@@@@@@@@mmn################{{{{{}2{{{{{{{{{{{{{{{{f++++++++@@@@@@@@@",
"@@mmn#################/{{{{|,,,o2{{{{{{{{{{{{{{f++++++l@@@@@@@@@@@mmn#################/{{{{|,,,o2{{{{{{{{{{{{{{f++++++l@@@@@@@@@",
"mmn###################{{{{{2,,,,,,o2{{{{{{{{{{{{f+++++@@@@@@@@@@mmn###################{{{{{2,,,,,,o2{{{{{{{{{{{{f+++++@@@@@@@@@@",
"n####################/{{{{{3,,,,,,,,,o2{{{{{{{{{{f+++l@@@@@@@@mmn####################/{{{{{3,,,,,,,,,o2{{{{{{{{{{f+++l@@@@@@@@mm",
"#####################{{{{{|,,,,,,,,,,,,,o2{{{{{{{{f++@@@@@@@mmn######################{{{{{|,,,,,,,,,,,,,o2{{{{{{{{f++@@@@@@@mmn#",
"####################/{{{{{2,,,,,,,,,,,,,,,,o2{{{{{{fl@@@@@mmn#######################/{{{{{2,,,,,,,,,,,,,,,,o2{{{{{{fl@@@@@mmn###",
"####################{{{{{{3,,,,,,,,,,,,,,,,,,,o2{{{{5@@@mmn#########################{{{{{{3,,,,,,,,,,,,,,,,,,,o2{{{{5@@@mmn#####",
"###################/{{{{{|,,,,,,,,,,,,,,,,,,,,,,,o2p#5mmn##########################/{{{{{|,,,,,,,,,,,,,,,,,,,,,,,o2p#5mmn#######",
"###################{{{{{{2,,,,,,,,,,,,,,,,,,,,,,,,,&,65############################{{{{{{2,,,,,,,,,,,,,,,,,,,,,,,,,&,65#########",
"##################/{{{{{{3,,,,,,,,,,,,,,,,,,,,,,,,q78~@5##########################/{{{{{{3,,,,,,,,,,,,,,,,,,,,,,,,q78~@5########",
"##################{{{{{{|,,,,,,,,,,,,,,,,,,,,,,,__899~@@5#########################{{{{{{|,,,,,,,,,,,,,,,,,,,,,,,__899~@@5#######",
"#################/{{{{{{2,,,,,,,,,,,,,,,,,,,,,__0r999~@@@5#######################/{{{{{{2,,,,,,,,,,,,,,,,,,,,,__0r999~@@@5######",
"#################{{{{{{{3,,,,,,,,,,,,,,,,,,,__0  9999~@@@@5######################{{{{{{{3,,,,,,,,,,,,,,,,,,,__0  9999~@@@@5#####",
"################/{{{{{{|,,,,,,,,,,,,,,,,,,__0   r9999~@@@@@5####################/{{{{{{|,,,,,,,,,,,,,,,,,,__0   r9999~@@@@@5####",
"################{{{{{{{2,,,,,,,,,,,,,,,,__0     99999~@@@@@@5###################{{{{{{{2,,,,,,,,,,,,,,,,__0     99999~@@@@@@5###",
"###############/{{{{{{{3,,,,,,,,,,,,,,__0      r99999~@@@@@@@5#################/{{{{{{{3,,,,,,,,,,,,,,__0      r99999~@@@@@@@5##",
"###############{{{{{{{|,,,,,,,,,,,,,__0        999999~@@@@@@@@5################{{{{{{{|,,,,,,,,,,,,,__0        999999~@@@@@@@@5#",
"##############/{{{{{{{2,,,,,,,,,,,__0         r999999~@@@@@@@@@5##############/{{{{{{{2,,,,,,,,,,,__0         r999999~@@@@@@@@@5",
"5#############{{{{{{{{3,,,,,,,,,__0           9999999~@@@@@@@@@@5#############{{{{{{{{3,,,,,,,,,__0           9999999~@@@@@@@@@@",
"@5###########/{{{{{{{|,,,,,,,,__0            r9999999~@@@@@@@@@@@5###########/{{{{{{{|,,,,,,,,__0            r9999999~@@@@@@@@@@",
"@@5##########{{{{{{{{2,,,,,,__0              99999999~@@@@@@@@@@@@5##########{{{{{{{{2,,,,,,__0              99999999~@@@@@@@@@@",
"@@@5########/{{{{{{{{3,,,,__0               r99999999~@@@@@@@@@@@@@5########/{{{{{{{{3,,,,__0               r99999999~@@@@@@@@@@",
"@@@@5#######{{{{{{{{|,,,__0                 999999999~@@@@@@@@@@@@@@5#######{{{{{{{{|,,,__0                 999999999~@@@@@@@@@@",
"@@@@@5#####/{{{{{{{{2,__0                  r999999999~@@@@@@@@@@@@@@@5#####/{{{{{{{{2,__0                  r999999999~@@@@@@@@@@",
"@@@@@@5####{{{{{{{{{a_0                    9999999999~@@@@@@@@@@@@@@@@5####{{{{{{{{{a_0                    9999999999~@@@@@@@@@@",
"@@@@@@@5##/{{{{{{{:b0                     r9999999999~@@@@@@@@@@@@@@@@@5##/{{{{{{{:b0                     r9999999999~@@@@@@@@@@",
"@@@@@@@@5#{{{{{{::<=                      99999999999~@@@@@@@@@@@@@@@@@@5#{{{{{{::<=                      99999999999~@@@@@@@@@@",
"@@@@@@@@@s{{{{{{<++c                     r99999999999~@@@@@@@@@@@@@@@@@@@s{{{{{{<++c                     r99999999999~@@@@@@@@@@",
"@@@@@@@@@+f{{{{{{{d                      999999999999~@@@@@@@@@@@@@@@@@@@+f{{{{{{{d                      999999999999~@@@@@@@@@@",
"@@@@@@@@5++f{{{{{{2,                    r999999999999~@@@@@@@@@@@@@@@@@@5++f{{{{{{2,                    r999999999999~@@@@@@@@@@",
"@@@@@@@@++++f{{{{{3,,,                  99999999999999tu@@@@@@@@@@@@@@@@++++f{{{{{3,,,                  99999999999999tu@@@@@@@@",
"@@@@@@@5+++++f{{{|,,,,,,               r99999999999999999tu@@@@@@@@@@@@5+++++f{{{|,,,,,,               r99999999999999999tu@@@@@",
"@@@@@@@+++++++f{{2,,,,,,,,             999999999999999999999tu@@@@@@@@@+++++++f{{2,,,,,,,,             999999999999999999999tu@@",
"u@@@@@5++++++++f{3,,,,,,,,,,          r999999999999999999999999tu@@@@@5++++++++f{3,,,,,,,,,,          r999999999999999999999999t",
"99tu@@++++++++++v,,,,,,,,,,,,,        9999999999999999999999999999tu@@++++++++++v,,,,,,,,,,,,,        99999999999999999999999999",
"99999g=+++++++++=w,,,,,,,,,,,,,,     r9999999999999999999999999999999g=+++++++++=w,,,,,,,,,,,,,,     r99999999999999999999999999",
"99999   *=++++++c w,,,,,,,,,,,,,,,   99999999999999999999999999999999   *=++++++c w,,,,,,,,,,,,,,,   999999999999999999999999999",
"9999~      *=++d   w,,,,,,,,,,,,,,,,r9999999999999999999999999999999~      *=++d   w,,,,,,,,,,,,,,,,r999999999999999999999999999",
"9999          *+    w,,,,,,,,,,,,,,,&&999999999999999999999999999999          *+    w,,,,,,,,,,,,,,,&&99999999999999999999999999",
"999~           ^+[.  w,,,,,,,,,,,,,)&&&&999999999999999999999999999~           ^+[.  w,,,,,,,,,,,,,)&&&&999999999999999999999999",
"999           *+++++[.w,,,,,,,,,,,,&&&&&&&9999999999999999999999999           *+++++[.w,,,,,,,,,,,,&&&&&&&9999999999999999999999",
"99~           .++++++++[^,,,,,,,,,)&&&&&&&&&9999999999999999999999~           .++++++++[^,,,,,,,,,)&&&&&&&&&99999999999999999999",
"99            ^+++++++++f{]^,,,,,,&&&&&&&&&&&&99999999999999999999            ^+++++++++f{]^,,,,,,&&&&&&&&&&&&999999999999999999",
"9~           *+++++++++++f{{{]^,,)&&&&&&&&&&&&&&99999999999999999~           *+++++++++++f{{{]^,,)&&&&&&&&&&&&&&9999999999999999",
"9            .++++++++++++f{{{{{]%&&&&&&&&&&&&&&&&999999999999999            .++++++++++++f{{{{{]%&&&&&&&&&&&&&&&&99999999999999",
"~            ^+++++++++++++f{{{{p##$%&&&&&&&&&&&&&&&999999999999~            ^+++++++++++++f{{{{p##$%&&&&&&&&&&&&&&&999999999999",
"            *+++++++++++++++f{{{######$%&&&&&&&&&&&&&&9999999999            *+++++++++++++++f{{{######$%&&&&&&&&&&&&&&9999999999",
"            .++++++++++++++++f{p#########$%&&&&&&&&&&&&&9999999~            .++++++++++++++++f{p#########$%&&&&&&&&&&&&&9999999~",
"            ^+++++++++++++++++f#############$%&&&&&&&&&&&&99999             ^+++++++++++++++++f#############$%&&&&&&&&&&&&99999 ",
"           *++++++++++++++++++l5###############$%&&&&&&&&&&&99~            *++++++++++++++++++l5###############$%&&&&&&&&&&&99~ "};
